# xmcd
#
# Track frame offsets:
#	150
#	21252
#	40380
#	58662
#	76432
#	101795
#	116412
#	150775
#	170057
#	189757
#	210840
#
# Disc length: 3095 seconds
#
# Revision: 0
# Processed by: cddbd v1.4PL0 Copyright (c) Steve Scherf et al.
# Submitted via: dBpowerAMP V4.0
#
DISCID=820c150b
DTITLE=The Trouble Cats - Plugged
DYEAR=1900
DGENRE=
TTITLE0=No Way of Tellin'
TTITLE1=I Aint Leavin
TTITLE2=I was Knocked out
TTITLE3=Goin' up'n Around
TTITLE4=First time i met the Blues
TTITLE5=I'm comin' over
TTITLE6=Still Crazy about You
TTITLE7=Thet's all i Want
TTITLE8=Double Crossin' Man
TTITLE9=A Woman Like You
TTITLE10=It ain't Easy
EXTD=
EXTT0=
EXTT1=
EXTT2=
EXTT3=
EXTT4=
EXTT5=
EXTT6=
EXTT7=
EXTT8=
EXTT9=
EXTT10=
PLAYORDER=
